<?xml version="1.0" standalone="no"?>
<!DOCTYPE svg PUBLIC "-//W3C//DTD SVG 20010904//EN"
 "http://www.w3.org/TR/2001/REC-SVG-20010904/DTD/svg10.dtd">
<svg version="1.0" xmlns="http://www.w3.org/2000/svg"
 width="96.000000pt" height="96.000000pt" viewBox="0 0 96.000000 96.000000"
 preserveAspectRatio="xMidYMid meet">

<g transform="translate(0.000000,96.000000) scale(0.100000,-0.100000)"
fill="#000000" stroke="none">
<path d="M189 851 l-29 -29 0 -342 0 -342 29 -29 29 -29 262 0 262 0 29 29 29
29 0 234 0 233 -138 138 -137 137 -153 0 -154 0 -29 -29z m291 -132 c0 -98 1
-101 29 -130 29 -28 32 -29 130 -29 l101 0 -2 -207 -3 -208 -255 0 -255 0 -3
325 c-1 179 0 330 3 337 3 10 38 13 130 13 l125 0 0 -101z m149 -97 c-89 -4
-89 -4 -89 80 l0 72 75 -74 76 -75 -62 -3z"/>
<path d="M487 493 c-12 -22 -68 -286 -63 -299 3 -9 15 -14 28 -12 20 3 26 17
56 147 18 79 31 150 28 157 -6 15 -42 19 -49 7z"/>
<path d="M297 396 c-20 -25 -37 -50 -37 -56 0 -6 17 -31 37 -56 26 -30 44 -44
58 -42 30 5 30 37 -1 69 l-28 29 28 29 c31 32 31 64 1 69 -14 2 -32 -12 -58
-42z"/>
<path d="M587 433 c-14 -13 -6 -38 20 -65 l27 -28 -28 -29 c-31 -32 -31 -64
-1 -69 14 -2 32 12 58 42 20 25 37 50 37 56 0 6 -17 31 -37 56 -35 41 -60 53
-76 37z"/>
</g>
</svg>
